<?xml version="1.0" encoding="iso-8859-1"?>
<svg version="1.1" id="Layer_1" xmlns="http://www.w3.org/2000/svg" xmlns:xlink="http://www.w3.org/1999/xlink" x="0px" y="0px"
	 viewBox="0 0 512 512" style="enable-background:new 0 0 512 512;" xml:space="preserve">

<polygon style="fill:#CCCCCC;" points="171.631,293.421 188.772,408 379.168,108.432 "/>
<path style="fill:#FFFFFF;" d="M371.866,108.375L96.777,236.433c-4.737,2.205-7.826,7.121-7.769,12.345
	c0.058,5.233,3.276,10.074,8.067,12.171l74.557,32.471l207.536-184.988C376.882,107.33,374.203,107.287,371.866,108.375z"/>
<polygon style="fill:#E5E5E5;" points="211.418,310.749 188.772,408 379.168,108.432 "/>
<path style="fill:#FFFFFF;" d="M380.263,109.054c-0.351-0.239-0.72-0.442-1.095-0.622l-167.75,202.317l139.27,60.657
	c8.468,3.849,18.439-2.21,18.983-11.453l14.314-243.341C384.161,113.614,382.748,110.742,380.263,109.054z"/>
<g>
</g>
<g>
</g>
<g>
</g>
<g>
</g>
<g>
</g>
<g>
</g>
<g>
</g>
<g>
</g>
<g>
</g>
<g>
</g>
<g>
</g>
<g>
</g>
<g>
</g>
<g>
</g>
<g>
</g>
</svg>
